<svg id="Layer_1" data-name="Layer 1" xmlns="http://www.w3.org/2000/svg" xmlns:xlink="http://www.w3.org/1999/xlink" viewBox="0 0 192 55"><defs><style>.cls-1{fill:url(#linear-gradient);}.cls-2{fill:url(#linear-gradient-2);}.cls-3{fill:url(#linear-gradient-3);}.cls-4{fill:url(#linear-gradient-4);}.cls-5{fill:#fff;}</style><linearGradient id="linear-gradient" x1="3" y1="344.13" x2="70.29" y2="344.13" gradientTransform="translate(0 -310.79)" gradientUnits="userSpaceOnUse"><stop offset="0" stop-color="#029bc4"/><stop offset="1" stop-color="#00eaff"/></linearGradient><linearGradient id="linear-gradient-2" x1="6.75" y1="327.47" x2="54.27" y2="327.47" xlink:href="#linear-gradient"/><linearGradient id="linear-gradient-3" x1="11.53" y1="317.23" x2="46.01" y2="317.23" xlink:href="#linear-gradient"/><linearGradient id="linear-gradient-4" x1="38.96" y1="346.48" x2="60.72" y2="346.48" gradientTransform="translate(0 -310.79)" gradientUnits="userSpaceOnUse"><stop offset="0.01" stop-color="#035f75"/><stop offset="1" stop-color="#13a4ff"/></linearGradient></defs><title>Webo-Logo-For Web</title><path class="cls-1" d="M70,17.94a7.19,7.19,0,0,1-2.82,3.24c.4-.56.83-1.13,1.18-1.72.88-1.53.32-2.68-1.15-3.41a10.18,10.18,0,0,0-2.76-.8,37.43,37.43,0,0,0-7.75-.08,84.42,84.42,0,0,0-18.91,4.13A91.72,91.72,0,0,0,23.92,25a52.65,52.65,0,0,0-11.13,7.43,23.76,23.76,0,0,0-5,5.87,9.14,9.14,0,0,0-1.31,4.08,5.45,5.45,0,0,0,2.2,4.88A9.39,9.39,0,0,0,13.3,49a11.15,11.15,0,0,0,3.89-.11,28,28,0,0,1-6.33-7.11A39.18,39.18,0,0,1,21,31.78c.86,1.39,1.61,2.76,2.52,4a34.6,34.6,0,0,0,3,3.54,40.52,40.52,0,0,0,2.68-12.55,81.26,81.26,0,0,1,13.06-5.31,38.49,38.49,0,0,1,7,14,17,17,0,0,0,0-15.79c.78-.54,8.29-1.8,9.71-1.64,2.25,4.85,2.74,13.89-.94,21.24A27.08,27.08,0,0,1,42.21,53.26,44.44,44.44,0,0,0,39,42.18a97.42,97.42,0,0,1-4.72,12.28,27.48,27.48,0,0,1-13.41-3.19l-2.33.24a24.68,24.68,0,0,1-3.11.24,19.48,19.48,0,0,1-7.54-1.18A7.28,7.28,0,0,1,3,43.44a15.09,15.09,0,0,1,2.39-7.86,31.24,31.24,0,0,1,11.5-11.24,100.31,100.31,0,0,1,8.9-4.67,76.39,76.39,0,0,1,16-5.44c2.74-.59,5.5-1.07,8.26-1.5a45.49,45.49,0,0,1,4.69-.38c1.42-.08,2.82-.13,4.24-.16a27.53,27.53,0,0,1,6.62.7,10.62,10.62,0,0,1,3,1.18C70.12,15,70.71,16.25,70,17.94Z"/><path class="cls-2" d="M6.75,27.81A26.48,26.48,0,0,1,8.85,16.95a1.5,1.5,0,0,1,.88-.83c3.14-1.45,6.3-2.82,9.57-4A118.13,118.13,0,0,1,38,7.13c2.63-.48,5.26-.8,7.91-1.18,1.13-.16,2.28-.27,3.43-.4A29.36,29.36,0,0,1,54.27,10c-.27.08-.54.11-.8.16a93,93,0,0,0-14.37,1.93A77.37,77.37,0,0,0,23,17.27a59.87,59.87,0,0,0-12.84,7.67c-.94.75-1.82,1.56-2.76,2.33Z"/><path class="cls-3" d="M11.53,12.33C18.82,1.1,34.13-2.74,46,3.54A125.69,125.69,0,0,0,11.53,12.33Z"/><path class="cls-4" d="M58,39.34A27.08,27.08,0,0,1,42.18,53.28,44.44,44.44,0,0,0,39,42.21c4.42-8.18,3.3-20.7,3.3-20.7a38.49,38.49,0,0,1,7,14,17,17,0,0,0,0-15.79c.78-.54,8.29-1.8,9.71-1.64C61.22,23,61.7,32,58,39.34Z"/><path class="cls-5" d="M59.23,7.86h.11a1,1,0,0,0,.54-.16,1.85,1.85,0,0,0,.48-.43.63.63,0,0,0,.19-.38s0-.05-.05-.08l-.08,0h-.08a7.33,7.33,0,0,0-1.07.13,3.55,3.55,0,0,0-.88.21.63.63,0,0,0-.24.21L58,7.51s0-.05-.05-.05,0-.08-.05-.13L57.79,7a3.25,3.25,0,0,0-.13-.38l-.21-.51,1.42-.43a4.81,4.81,0,0,1,1.37-.19,2,2,0,0,1,.88.19,1,1,0,0,1,.48.43.76.76,0,0,1,.11.35,2.24,2.24,0,0,1-.64,1.18.94.94,0,0,1,.38.16,2.12,2.12,0,0,1,.56.64,1.78,1.78,0,0,1,.29,1,2.42,2.42,0,0,1-.21.75,1.14,1.14,0,0,1-.91.67,4.66,4.66,0,0,1-1,.13h-.19a.52.52,0,0,1-.21,0l-1.93-.35.21-1a7,7,0,0,0,1.53.24c.7,0,1.07-.11,1.18-.35A1.7,1.7,0,0,0,60.87,9a.64.64,0,0,0-.19-.35.84.84,0,0,0-.29-.24,5.62,5.62,0,0,1-.62.21,2.69,2.69,0,0,1-.64.11Z"/><path class="cls-5" d="M63.9,7.88a1.35,1.35,0,0,1,.72-.08.44.44,0,0,1,.32.13,1.52,1.52,0,0,1,.35.21,2.14,2.14,0,0,1,.48.72,1.74,1.74,0,0,1,.19,1,2.28,2.28,0,0,1-.29.7,1.32,1.32,0,0,1-.75.62,3.27,3.27,0,0,1-.7.16,1.15,1.15,0,0,1-.43,0l-.32,0a1.94,1.94,0,0,1-1.31-.56,2.33,2.33,0,0,1-.43-.8V9.68a4.26,4.26,0,0,1,.38-1.26A8.14,8.14,0,0,1,62.91,7a3.33,3.33,0,0,1,1.53-1.18,6.34,6.34,0,0,1,2.09-.54l-.94,1.15a6.6,6.6,0,0,0-1.1.75A2.72,2.72,0,0,0,63.9,7.88Zm.78,1.47A.8.8,0,0,0,64,8.69a.84.84,0,0,0-.56.19,1.14,1.14,0,0,0-.48.46l0,.13A.84.84,0,0,0,63,10a.8.8,0,0,0,.51.27l.13,0c.4,0,.67-.08.78-.27a1.37,1.37,0,0,0,.19-.46.29.29,0,0,0,.05-.24Z"/><path class="cls-5" d="M68.83,6.94A1.6,1.6,0,0,1,70,8.12,3.72,3.72,0,0,1,69.85,10l-.05.13a2.68,2.68,0,0,1-.59.91,3.25,3.25,0,0,1-1,.75,1.7,1.7,0,0,1-1.15.08q-1.13-.36-1.21-1.13a5.28,5.28,0,0,1,0-1.13A2.74,2.74,0,0,1,66,8.85a2.45,2.45,0,0,1,.16-.43l.4-.75a1.48,1.48,0,0,1,.88-.72,3,3,0,0,1,.83-.11A3.85,3.85,0,0,1,68.83,6.94ZM68.22,8.5a.49.49,0,0,0-.43,0,1.38,1.38,0,0,0-.56.78.72.72,0,0,0,.38,1s0,0,.05,0a.73.73,0,0,0,.7-.13,1.31,1.31,0,0,0,.29-.48,1.28,1.28,0,0,0,0-.78.89.89,0,0,0-.46-.43Z"/><path class="cls-5" d="M72.72,10.32a1,1,0,0,1-.67.38A1,1,0,0,1,71,9.81h0a1.08,1.08,0,0,1,.21-.75.89.89,0,0,1,.7-.35,1,1,0,0,1,.72.21.92.92,0,0,1,.35.67A1,1,0,0,1,72.72,10.32Zm-.48-.4a.38.38,0,0,0-.59-.48h0a.32.32,0,0,0-.08.27.38.38,0,0,0,.4.35h0a.37.37,0,0,0,.27-.13Z"/><path class="cls-5" d="M112.27,8.5h4.88l-10.24,20H101l-3-6-3,6h-5.9L78.81,8.5h4.91L92,24.7l3.51-6.92L90.8,8.47h4.88L104,24.7Z"/><path class="cls-5" d="M118.58,8.5h21.56v3.81H118.58Zm4.21,6v2h6.73c2.57,0,5.1,0,7.59,0v3.83H122.81v4.48h17.35v3.81H118.58V14.45Z"/><path class="cls-5" d="M146.06,14.45v2l11.34,0a1.69,1.69,0,0,0,1.18-.38,2.51,2.51,0,0,0,.38-1.61A4.22,4.22,0,0,0,158.8,13a.91.91,0,0,0-.48-.56,2.66,2.66,0,0,0-.91-.11H141.88V8.5h17.27a4.68,4.68,0,0,1,2.84.86,3.39,3.39,0,0,1,1.15,2.92v3.86a2.23,2.23,0,0,1-.35,1.37,2.75,2.75,0,0,1,1.77,2.68v5.07c-.05,2.17-1.31,3.27-3.78,3.27H141.85V14.45Zm14,9.84a2.72,2.72,0,0,0,.38-1.72,3.45,3.45,0,0,0-.38-1.88,1.48,1.48,0,0,0-1.21-.51H146.09V24.7h12.79A1.53,1.53,0,0,0,160.06,24.29Z"/><path class="cls-5" d="M167.54,27.59a3.25,3.25,0,0,1-1.23-2.74V14.45h4.18v8.69a2,2,0,0,0,.4,1.21,1.4,1.4,0,0,0,.91.38h11.72a3,3,0,0,0,.86-.11.81.81,0,0,0,.46-.48A3.26,3.26,0,0,0,185,22.9V14.26a3.76,3.76,0,0,0-.16-1.34.83.83,0,0,0-.46-.54,3.33,3.33,0,0,0-.88-.11H166.31a3.88,3.88,0,0,1,1.31-2.79,4.14,4.14,0,0,1,2.82-1H185a4.68,4.68,0,0,1,2.84.86A3.39,3.39,0,0,1,189,12.25V24.72a3.42,3.42,0,0,1-1.15,2.92,4.68,4.68,0,0,1-2.84.86H170.47A4.68,4.68,0,0,1,167.54,27.59Z"/><path class="cls-5" d="M81.57,41.32a1.67,1.67,0,0,1-.72-.56,1.24,1.24,0,0,1-.27-.7.17.17,0,0,1,.16-.16h.72a.23.23,0,0,1,.24.16q.16.56,1,.56a1.08,1.08,0,0,0,.75-.21.75.75,0,0,0,.27-.64.67.67,0,0,0-.24-.59A1.18,1.18,0,0,0,82.8,39H82a.18.18,0,0,1-.19-.19v-.35a.29.29,0,0,1,.11-.24l1.42-1.37H81.09a.18.18,0,0,1-.19-.19v-.54a.18.18,0,0,1,.19-.19h3.43a.18.18,0,0,1,.19.19v.51a.24.24,0,0,1-.11.21l-1.37,1.39h.11a2.15,2.15,0,0,1,1.21.46A1.39,1.39,0,0,1,85,39.82a1.58,1.58,0,0,1-.27.91,1.56,1.56,0,0,1-.78.59,3.33,3.33,0,0,1-2.39,0Z"/><path class="cls-5" d="M90.66,41.27a1.83,1.83,0,0,1-1-1.69A2.82,2.82,0,0,1,90.23,38l1.45-2c0-.05.08-.08.11-.13a.18.18,0,0,1,.16,0h.75a.14.14,0,0,1,.11.05.2.2,0,0,1,.05.13.16.16,0,0,1,0,.11L91.71,37.7a1.31,1.31,0,0,1,.32,0,2.2,2.2,0,0,1,1,.27,2.17,2.17,0,0,1,.72.67,1.75,1.75,0,0,1,.27,1,1.89,1.89,0,0,1-1,1.72,2.43,2.43,0,0,1-1.15.27A2.84,2.84,0,0,1,90.66,41.27Zm1.9-.94a1.09,1.09,0,0,0,0-1.5,1.19,1.19,0,0,0-1.5,0,1.09,1.09,0,0,0,0,1.5,1.12,1.12,0,0,0,.75.27A1,1,0,0,0,92.57,40.33Z"/><path class="cls-5" d="M99.27,40.95a2.31,2.31,0,0,1-.56-1.56V37.92a2.44,2.44,0,0,1,.56-1.53,2,2,0,0,1,1.58-.59,2,2,0,0,1,1.58.59,2.29,2.29,0,0,1,.56,1.53c0,.29,0,.54,0,.75a7,7,0,0,1,0,.72,2.57,2.57,0,0,1-.56,1.56,2.42,2.42,0,0,1-3.16,0Zm2.33-.67a1.58,1.58,0,0,0,.27-.91V38a1.58,1.58,0,0,0-.27-.91,1,1,0,0,0-1.39-.08l-.08.08a1.58,1.58,0,0,0-.27.91v1.39a1.58,1.58,0,0,0,.27.91,1,1,0,0,0,1.42.05S101.58,40.3,101.6,40.28Z"/><path class="cls-5" d="M114.58,41.32a2,2,0,0,1-.78-.56,1.28,1.28,0,0,1-.27-.75.14.14,0,0,1,.05-.11.2.2,0,0,1,.11-.05h.72a.2.2,0,0,1,.13,0c.05,0,.08.08.11.11a.84.84,0,0,0,.35.46,1.59,1.59,0,0,0,.78.19,1.47,1.47,0,0,0,.83-.19.58.58,0,0,0,.13-.86,1.36,1.36,0,0,0-.43-.24,8.65,8.65,0,0,0-.86-.27,3.13,3.13,0,0,1-1.37-.59,1.29,1.29,0,0,1-.43-1,1.34,1.34,0,0,1,.27-.83,1.67,1.67,0,0,1,.72-.56,3.08,3.08,0,0,1,1.1-.21,2.87,2.87,0,0,1,1.15.24,1.89,1.89,0,0,1,.72.56,1.24,1.24,0,0,1,.27.7.14.14,0,0,1-.05.11.2.2,0,0,1-.11.05H117a.28.28,0,0,1-.24-.13.59.59,0,0,0-.32-.43,1.48,1.48,0,0,0-1.34,0,.57.57,0,0,0-.11.83,1,1,0,0,0,.4.24,4.32,4.32,0,0,0,.78.24,6,6,0,0,1,1.13.35,1.41,1.41,0,0,1,.62.51,1.34,1.34,0,0,1,.19.78,1.44,1.44,0,0,1-.27.88,1.7,1.7,0,0,1-.8.56,3,3,0,0,1-1.18.19A2.77,2.77,0,0,1,114.58,41.32Z"/><path class="cls-5" d="M123.4,41a2.18,2.18,0,0,1-.64-1.64V38a2.12,2.12,0,0,1,.64-1.61,2.78,2.78,0,0,1,3.35,0A2.12,2.12,0,0,1,127.4,38c0,.29,0,.54,0,.67s0,.38,0,.67a2.18,2.18,0,0,1-.64,1.64A2.86,2.86,0,0,1,123.4,41Zm2.52-.7a1.29,1.29,0,0,0,.32-1c0-.32,0-.54,0-.64s0-.32,0-.64a1.31,1.31,0,0,0-.35-1,1.27,1.27,0,0,0-1.69,0,1.29,1.29,0,0,0-.32,1v1.29a1.4,1.4,0,0,0,.32,1,1.3,1.3,0,0,0,1.72,0Z"/><path class="cls-5" d="M132.49,41.4a.2.2,0,0,1-.05-.13V36.09a.18.18,0,0,1,.19-.19h.75c.11,0,.19.05.19.16v4.45h2.52a.18.18,0,0,1,.19.19v.56a.18.18,0,0,1-.19.19h-3.46A.2.2,0,0,1,132.49,41.4Z"/><path class="cls-5" d="M141.45,41a2.1,2.1,0,0,1-.59-1.66V36.09a.18.18,0,0,1,.19-.19h.72a.18.18,0,0,1,.19.19v3.27a1.32,1.32,0,0,0,.29.94,1.27,1.27,0,0,0,1.69,0,1.36,1.36,0,0,0,.29-.94V36.12a.18.18,0,0,1,.19-.19h.75a.18.18,0,0,1,.19.19v3.24a2.13,2.13,0,0,1-.59,1.66,2.35,2.35,0,0,1-1.66.54A2.65,2.65,0,0,1,141.45,41Z"/><path class="cls-5" d="M151.83,41.4a.2.2,0,0,1-.05-.13V36.9H150.3a.18.18,0,0,1-.19-.19v-.62a.18.18,0,0,1,.19-.19h4a.18.18,0,0,1,.19.19v.62a.18.18,0,0,1-.19.19H152.9v4.37a.18.18,0,0,1-.19.19H152A.2.2,0,0,1,151.83,41.4Z"/><path class="cls-5" d="M159.39,41.4a.2.2,0,0,1-.05-.13V36.09a.18.18,0,0,1,.19-.19h.75c.11,0,.19.05.19.16v5.2a.18.18,0,0,1-.19.19h-.75A.2.2,0,0,1,159.39,41.4Z"/><path class="cls-5" d="M166.15,41a2.18,2.18,0,0,1-.64-1.64V38a2.12,2.12,0,0,1,.64-1.61,2.78,2.78,0,0,1,3.35,0,2.12,2.12,0,0,1,.64,1.61c0,.29,0,.54,0,.67s0,.38,0,.67A2.18,2.18,0,0,1,169.5,41a2.86,2.86,0,0,1-3.35,0Zm2.52-.7a1.31,1.31,0,0,0,.32-1c0-.32,0-.54,0-.64s0-.32,0-.64a1.31,1.31,0,0,0-.35-1,1.27,1.27,0,0,0-1.69,0,1.29,1.29,0,0,0-.32,1v1.29a1.4,1.4,0,0,0,.32,1,1.34,1.34,0,0,0,1.72,0Z"/><path class="cls-5" d="M175.24,41.4a.2.2,0,0,1-.05-.13V36.09a.18.18,0,0,1,.19-.19H176a.28.28,0,0,1,.24.13l2.28,3.51V36.09a.18.18,0,0,1,.19-.19h.67a.18.18,0,0,1,.19.19v5.2a.18.18,0,0,1-.19.19h-.62a.28.28,0,0,1-.24-.13l-2.25-3.46v3.38a.18.18,0,0,1-.19.19h-.7A.2.2,0,0,1,175.24,41.4Z"/><path class="cls-5" d="M185.48,41.32a2,2,0,0,1-.78-.56,1.28,1.28,0,0,1-.27-.75.14.14,0,0,1,.05-.11.2.2,0,0,1,.11-.05h.72a.2.2,0,0,1,.13,0c.05,0,.08.08.11.11a.84.84,0,0,0,.35.46,1.59,1.59,0,0,0,.78.19,1.47,1.47,0,0,0,.83-.19.58.58,0,0,0,.13-.86,1.36,1.36,0,0,0-.43-.24,8.65,8.65,0,0,0-.86-.27,3.13,3.13,0,0,1-1.37-.59,1.29,1.29,0,0,1-.43-1,1.34,1.34,0,0,1,.27-.83,1.67,1.67,0,0,1,.72-.56,3.08,3.08,0,0,1,1.1-.21,2.87,2.87,0,0,1,1.15.24,1.89,1.89,0,0,1,.72.56,1.24,1.24,0,0,1,.27.7.14.14,0,0,1-.05.11.2.2,0,0,1-.11.05h-.75a.28.28,0,0,1-.24-.13.59.59,0,0,0-.32-.43,1.48,1.48,0,0,0-1.34,0,.57.57,0,0,0-.11.83,1,1,0,0,0,.4.24,4.32,4.32,0,0,0,.78.24,6,6,0,0,1,1.13.35,1.41,1.41,0,0,1,.62.51,1.34,1.34,0,0,1,.19.78,1.44,1.44,0,0,1-.27.88,1.7,1.7,0,0,1-.8.56,3,3,0,0,1-1.18.19A2.83,2.83,0,0,1,185.48,41.32Z"/><path class="cls-5" d="M87.3,48.9H85.8v1.38H85V46.71h2.59v.66H85.8v.89H87.3Z"/><path class="cls-5" d="M92.24,46.65a1.84,1.84,0,1,1-1.81,1.84A1.7,1.7,0,0,1,92.24,46.65Zm0,3c.66,0,1-.49,1-1.21s-.32-1.21-1-1.21-1,.49-1,1.21S91.58,49.7,92.24,49.7Z"/><path class="cls-5" d="M99.4,48.84l.75,1.38v.06h-.89l-.66-1.35H98v1.35h-.8V46.71h1.61c.72,0,1.29.26,1.29,1.09A1,1,0,0,1,99.4,48.84ZM98,48.29h.8a.46.46,0,0,0,0-.92H98Z"/><path class="cls-5" d="M107.62,50.27h-.83l1.29-3.59h1l1.29,3.59h-.86l-.29-.83h-1.32Zm.95-2.76-.43,1.29h.92l-.43-1.29Z"/><path class="cls-5" d="M118.82,46.71c1,0,1.24.55,1.24.89a.84.84,0,0,1-.52.8.8.8,0,0,1,.57.83c0,.46-.32,1-1.24,1h-1.67V46.71h1.61Zm-.8.66v.75h.8a.39.39,0,0,0,.4-.4c0-.2-.14-.34-.43-.34Zm.83,2.27a.42.42,0,0,0,.46-.37v-.09a.44.44,0,0,0-.49-.43H118v.89Z"/><path class="cls-5" d="M125.57,48.75h-1.49v.86h1.78v.66h-2.59V46.71h2.59v.66h-1.78v.75h1.49Z"/><path class="cls-5" d="M129.8,50.27V47.34h-1.09v-.66h3v.66h-1.09v2.93Z"/><path class="cls-5" d="M135.55,50.27V47.34h-1.09v-.66h3v.66h-1.09v2.93Z"/><path class="cls-5" d="M142.79,48.75h-1.49v.86h1.78v.66h-2.59V46.71h2.59v.66h-1.78v.75h1.49Z"/><path class="cls-5" d="M148.45,48.84l.75,1.38v.06h-.89l-.66-1.35h-.57v1.35h-.8V46.71h1.61c.72,0,1.29.26,1.29,1.09A1.13,1.13,0,0,1,148.45,48.84ZM147,48.29h.8a.46.46,0,0,0,0-.92H147Z"/><path class="cls-5" d="M158.53,48.9H157v1.38h-.8V46.71h2.59v.66H157v.89h1.49Z"/><path class="cls-5" d="M162.67,46.71V49a.75.75,0,1,0,1.49,0h0V46.71h.8V49a1.56,1.56,0,0,1-3.1,0V46.71Z"/><path class="cls-5" d="M169.05,50.27V47.34H168v-.66h3v.66h-1.09v2.93Z"/><path class="cls-5" d="M174.74,46.71V49a.75.75,0,1,0,1.49,0h0V46.71h.8V49a1.56,1.56,0,0,1-3.1,0V46.71Z"/><path class="cls-5" d="M182.53,48.84l.75,1.38v.06h-.89l-.66-1.35h-.57v1.35h-.8V46.71H182c.72,0,1.29.26,1.29,1.09A1.05,1.05,0,0,1,182.53,48.84Zm-1.41-.55h.8a.46.46,0,0,0,0-.92h-.8Z"/><path class="cls-5" d="M188.71,48.75h-1.49v.86H189v.66h-2.59V46.71H189v.66h-1.78v.75h1.49Z"/></svg>